<svg width="321" height="74" viewBox="0 0 321 74" fill="none" xmlns="http://www.w3.org/2000/svg">
<path d="M299.569 8.04753C300.082 4.26966 301.461 3.33368 305.771 2.27316L315.977 0.167212C320.547 -0.89331 321.614 3.29217 320.7 7.03608C319.191 13.2294 310.464 47.117 310.101 47.9587C309.18 50.0835 307.352 51.5893 305.356 50.8609L296.794 46.9208C294.198 45.3545 294.562 43.4373 294.738 40.4822C294.981 36.3797 299.24 10.4932 299.569 8.04753Z" fill="#FF9827"/>
<path d="M315.978 0.167106L315.963 0.17088C318.412 0.910603 318.921 4.10349 318.206 7.03597C316.697 13.2293 307.97 47.1169 307.607 47.9585C307.056 49.2304 306.176 50.2758 305.135 50.7589L305.36 50.8608C307.36 51.5892 309.184 50.0834 310.105 47.9585C310.468 47.1169 319.195 13.2293 320.704 7.03597C321.611 3.29583 320.543 -0.889643 315.978 0.167106Z" fill="#FFB600"/>
<path d="M296.401 73.3621C291.981 71.6486 289.787 66.6857 291.487 62.2662C293.165 57.9071 298.251 55.6804 302.577 57.409C306.839 59.1111 309.015 64.0665 307.412 68.4218C305.783 72.845 300.813 75.0755 296.401 73.3621Z" fill="#FF9827"/>
<path d="M86.3262 52.0047C86.3374 56.911 86.3299 61.8174 86.3299 66.7237C86.3299 67.2068 86.3449 67.6936 86.3112 68.1767C86.1764 70.1091 85.1577 71.2488 83.2588 71.3205C80.858 71.4111 78.4498 71.4036 76.0491 71.3205C74.3674 71.2602 73.4124 70.3091 73.1352 68.6409C73.0266 67.988 73.0229 67.3162 73.0229 66.652C73.0154 61.3833 73.0191 56.1147 73.0154 50.8423C73.0154 50.178 73.0229 49.51 72.9779 48.8458C72.7532 45.3849 70.5772 43.1544 67.2813 42.9959C63.8169 42.8299 61.3937 44.7811 60.8319 48.2344C60.7157 48.9477 60.7083 49.6799 60.7045 50.4045C60.6933 55.8543 60.7008 61.3079 60.697 66.7577C60.697 67.3011 60.7158 67.8521 60.6596 68.3918C60.4835 70.0902 59.4536 71.2337 57.7532 71.3092C55.2925 71.4149 52.8244 71.4111 50.3637 71.3092C48.712 71.2375 47.7794 70.2034 47.5734 68.5202C47.491 67.8635 47.491 67.1917 47.491 66.5274C47.4873 51.6877 47.4873 36.8479 47.4873 22.0119C47.4873 21.71 47.4798 21.4043 47.491 21.1024C47.5622 18.7511 48.2701 17.8265 50.5585 17.317C52.551 16.8716 54.5622 16.5131 56.5734 16.1583C59.1689 15.6979 60.6371 16.8754 60.682 19.5588C60.742 23.0083 60.7008 26.4616 60.7008 29.9149C60.7008 31.4283 60.7008 32.938 60.7008 34.4627C61.2626 34.6325 61.4611 34.3495 61.697 34.1947C66.521 31.0471 71.6745 30.7792 76.8693 32.8587C82.8468 35.2515 85.6146 40.1503 86.2288 46.3926C86.4123 48.2382 86.3225 50.129 86.3262 52.0047ZM212.064 66.8558C208.3 61.6777 204.555 56.4846 200.757 51.3291C200.158 50.5177 199.978 49.9403 200.787 49.1704C201.483 48.5099 202.045 47.7098 202.667 46.9663C205.768 43.2639 208.877 39.5653 211.963 35.8478C212.54 35.1496 213.131 34.3797 212.678 33.3871C212.24 32.4247 211.296 32.3115 210.39 32.202C210.034 32.1605 209.671 32.1756 209.307 32.1756C207.442 32.1718 205.573 32.2775 203.719 32.1492C201.128 31.968 199.206 32.9908 197.656 35.0099C195.708 37.5499 193.697 40.0408 191.712 42.5506C190.412 44.1961 189.113 45.8454 187.817 47.4909C187.689 47.4531 187.558 47.4192 187.431 47.3814C187.431 46.7813 187.431 46.1813 187.431 45.5812C187.431 37.3423 187.431 29.1035 187.435 20.8646C187.435 19.9551 187.45 19.0417 187.199 18.1586C186.802 16.7546 185.82 15.879 184.45 16.0338C181.704 16.3395 178.978 16.8414 176.319 17.5925C174.982 17.9699 174.255 18.9964 174.202 20.4344C174.184 20.9778 174.184 21.5251 174.184 22.0685C174.184 36.8517 174.184 51.6311 174.184 66.4142C174.184 66.8973 174.173 67.3842 174.195 67.8672C174.3 70.2034 175.367 71.2941 177.678 71.3432C179.663 71.3847 181.644 71.3734 183.629 71.347C186.232 71.313 187.337 70.2261 187.416 67.5729C187.468 65.7575 187.599 63.9195 187.386 62.1268C187.109 59.802 188.296 58.398 189.952 56.9827C192.064 60.1605 194.128 63.2779 196.206 66.3803C196.877 67.3804 197.555 68.3881 198.319 69.3203C199.45 70.6978 200.91 71.4224 202.734 71.3658C204.176 71.3205 205.618 71.3621 207.064 71.3545C208.506 71.3507 209.959 71.43 211.39 71.3017C213.45 71.1205 214.034 69.7769 212.903 68.0295C212.641 67.6295 212.345 67.2445 212.064 66.8558ZM157.768 31.8963C152.083 30.8924 147.008 32.1114 143.146 36.814C143 36.9913 142.888 37.2253 142.394 37.1876C142.394 36.7121 142.405 36.2894 142.39 35.8667C142.3 33.3003 141.289 32.2775 138.716 32.1831C137.817 32.1492 136.914 32.1756 136.012 32.1756C132.289 32.1831 131.431 33.0323 131.427 36.7649C131.424 46.7587 131.424 56.7525 131.427 66.7463C131.427 67.2294 131.42 67.7163 131.457 68.1994C131.607 70.1543 132.611 71.2564 134.513 71.3243C136.854 71.4073 139.203 71.3998 141.543 71.3281C143.412 71.2715 144.39 70.3053 144.648 68.4409C144.731 67.8446 144.731 67.2332 144.731 66.6293C144.738 61.3607 144.731 56.0921 144.738 50.8196C144.738 50.095 144.738 49.3628 144.802 48.642C145.094 45.3095 147.281 43.1582 150.517 42.9884C153.937 42.811 156.277 44.6867 156.899 48.0645C157.041 48.8458 157.064 49.627 157.064 50.4158C157.064 55.8052 157.064 61.1984 157.064 66.5878C157.064 67.1313 157.049 67.6785 157.09 68.222C157.236 70.0562 158.236 71.2224 160.019 71.3017C162.48 71.4111 164.948 71.4036 167.408 71.3054C169.12 71.2375 170.135 70.1619 170.386 68.4447C170.453 67.9691 170.438 67.4785 170.442 66.9954C170.446 60.938 170.435 54.8806 170.45 48.8231C170.453 47.4833 170.33 46.1624 170.131 44.8452C169.105 38.0519 164.468 33.0776 157.768 31.8963ZM40.7308 20.9288C40.3113 20.9137 39.8881 20.925 39.4686 20.925C33.757 20.925 28.0416 20.925 22.33 20.925C16.4986 20.925 10.6634 20.925 4.83193 20.925C4.2926 20.925 3.74579 20.9099 3.21021 20.9703C1.27388 21.1854 0.236428 22.1516 0.0903613 24.1028C-0.0294888 25.669 -0.0294888 27.2579 0.0866159 28.8242C0.236428 30.8282 1.36377 31.8586 3.35627 32.0208C3.83567 32.0586 4.31882 32.0397 4.79822 32.0397C7.86563 32.0397 10.933 32.0435 14.0005 32.0397C15.6596 32.0359 15.5285 31.9718 15.5248 33.6437C15.5248 33.9456 15.5248 34.2513 15.5248 34.5533C15.5248 45.2189 15.5248 55.8845 15.5248 66.5463C15.5248 67.1502 15.4948 67.7653 15.5735 68.3617C15.8132 70.1581 16.8731 71.2451 18.6784 71.3092C21.0791 71.3998 23.4911 71.396 25.8918 71.3168C27.7233 71.2564 28.7532 70.2412 29.0341 68.4145C29.1353 67.7616 29.1128 67.086 29.1128 66.4218C29.1165 55.4542 29.1128 44.4867 29.1203 33.5192C29.1203 32.0624 29.139 32.0473 30.5884 32.0435C33.8956 32.0359 37.2027 32.0586 40.5098 32.0359C43.4311 32.0171 44.5173 30.9113 44.5809 27.9524C44.6034 26.922 44.6109 25.8917 44.5772 24.8614C44.4985 22.0987 43.4386 21.0231 40.7308 20.9288ZM252.903 51.9934C252.745 53.8616 252.064 54.5824 250.225 54.8051C249.569 54.8843 248.903 54.873 248.244 54.8768C241.146 54.8806 234.049 54.8768 226.955 54.8843C226.363 54.8843 225.757 54.7749 225.053 55.0278C225.51 59.017 228.345 61.8551 232.513 62.6137C236.202 63.2855 239.614 62.4967 242.626 60.3568C245.723 58.1603 246.217 58.949 248.206 61.055C248.828 61.7117 249.491 62.3382 250.071 63.0289C251.09 64.2441 251.086 65.2178 250.075 66.4406C249.259 67.4257 248.27 68.2371 247.15 68.8372C239.442 72.9434 231.446 73.8454 223.39 70.2034C216.367 67.0294 212.738 61.2211 212.131 53.5143C211.858 50.0158 212.307 46.6002 213.764 43.396C216.948 36.3837 222.543 32.6851 230.004 31.7567C233.247 31.3528 236.502 31.5642 239.644 32.5756C246.847 34.8929 251.011 39.9465 252.566 47.3022C252.888 48.8382 253.038 50.412 252.903 51.9934ZM239.869 47.3777C239.142 43.0676 236.034 40.5654 231.873 40.822C228.113 41.0523 225.319 43.7658 225.206 47.3777C230.045 47.3777 234.88 47.3777 239.869 47.3777ZM127.618 54.6428C127.641 58.7037 127.626 62.7609 127.618 66.8218C127.618 67.4257 127.615 68.0371 127.528 68.6334C127.3 70.2185 126.401 71.1771 124.809 71.2979C123.315 71.4111 121.798 71.4111 120.304 71.3054C118.925 71.2073 117.967 70.4223 117.63 69.0033C117.547 68.6523 117.468 68.3013 117.326 67.6861C114.828 69.7203 112.229 71.1922 109.244 71.8904C105.124 72.8528 101.09 72.4981 97.2288 70.8412C93.0415 69.041 90.4386 65.8481 90.0378 61.1871C89.6408 56.56 91.2812 52.7256 95.0865 50.0007C98.7794 47.355 103.019 46.7021 107.439 46.8304C110.045 46.9059 112.54 47.5739 115.027 48.2759C115.809 44.9811 114.255 42.3657 111.008 41.5391C108.173 40.8145 105.401 41.2825 102.663 42.1241C101.566 42.4638 100.562 43.0148 99.5284 43.5017C97.5209 44.449 96.2775 44.0187 95.2138 42.0335C94.873 41.3957 94.5696 40.7352 94.2738 40.071C93.1389 37.5424 93.506 36.4064 95.9329 34.9948C98.3 33.6211 100.858 32.7417 103.521 32.2133C108.442 31.2358 113.334 31.2811 118.079 33.1153C123.817 35.3345 126.843 39.6596 127.468 45.7435C127.779 48.6986 127.6 51.6726 127.618 54.6428ZM115.607 57.4621C115.794 56.4317 115.315 55.9486 114.375 55.6278C113.236 55.2353 112.094 54.8504 110.91 54.6654C109.057 54.3748 107.195 54.3182 105.416 55.0844C103.439 55.9373 102.386 57.5866 102.487 59.6322C102.585 61.5419 103.791 63.0515 105.824 63.6704C108.161 64.38 110.461 64.2215 112.645 63.0855C114.6 62.0665 115.914 60.6172 115.6 58.3867C115.6 57.9451 115.566 57.696 115.607 57.4621Z" fill="url(#paint0_linear)"/>
<path d="M307.775 66.8594C306.962 71.5582 302.558 74.6945 297.925 73.8679C293.356 73.0527 290.202 68.4597 291.049 63.8477C291.88 59.3037 296.285 56.1938 300.835 56.9336C305.453 57.6846 308.588 62.1645 307.775 66.8594Z" fill="#FF9827"/>
<path d="M250.071 63.0402C249.49 62.3457 248.827 61.723 248.206 61.0663C246.213 58.9604 245.719 58.1716 242.625 60.3681C241.64 61.0663 240.61 61.606 239.543 62.0136C241.09 64.8819 243.397 67.3653 246.479 69.1882C246.704 69.075 246.925 68.9693 247.149 68.8485C248.269 68.2522 249.258 67.4408 250.075 66.452C251.086 65.2292 251.09 64.2554 250.071 63.0402Z" fill="#C65858"/>
<path d="M250.228 54.816C252.067 54.5933 252.749 53.8725 252.906 52.0043C253.037 50.472 252.895 48.9473 252.592 47.449C251.929 47.449 251.262 47.4452 250.599 47.4414C250.491 47.4414 250.382 47.3546 250.273 47.3093C250.352 45.9507 250.794 44.7467 251.502 43.7466C250.198 40.2782 248.198 37.4363 245.315 35.3794C241.034 38.4553 238.097 43.2748 237.329 49.1964C237.082 51.1061 237.086 53.0195 237.315 54.8877C240.959 54.8877 244.603 54.8839 248.247 54.8839C248.906 54.8839 249.573 54.8953 250.228 54.816Z" fill="#C65858"/>
<path d="M275.176 32.745C271.307 30.7749 267.195 30.1295 262.902 30.322C252.019 30.8089 243.917 38.1155 242.509 48.9887C241.314 58.2013 245.288 67.5761 254.906 71.5993C263.352 75.1319 271.666 74.1657 279.659 69.8821C280.734 69.3047 281.681 68.5234 282.513 67.6177C283.846 66.1609 283.891 64.9833 282.607 63.5454C281.622 62.4434 280.599 61.3753 279.532 60.3563C278.326 59.2014 277.554 59.1561 276.097 60.043C275.112 60.6394 274.183 61.3376 273.161 61.8584C269.371 63.7907 265.453 64.1493 261.498 62.4509C258.389 61.1187 256.58 58.6995 256.007 55.0386C256.94 55.0386 257.573 55.0386 258.202 55.0386C265.749 55.0386 273.296 55.0424 280.842 55.0348C281.607 55.0348 282.382 55.0348 283.138 54.9254C284.91 54.665 285.584 53.9479 285.715 52.1325C286.228 44.9202 282.648 36.5531 275.176 32.745ZM270.974 47.1658C266.191 47.1281 261.408 47.1356 256.625 47.1205C256.509 47.1205 256.393 47.03 256.281 46.9771C256.49 43.4106 258.94 40.78 262.618 40.1649C266.794 39.4667 270.76 41.984 271.771 45.9506C271.959 46.6865 271.981 47.1734 270.974 47.1658Z" fill="#FF9827"/>
<path d="M310.858 6.62459L307.88 7.07748C307.217 7.17939 306.599 6.71895 306.498 6.04716C306.397 5.37914 306.854 4.75264 307.521 4.65451L310.498 4.20162C311.161 4.09972 311.779 4.56016 311.88 5.23195C311.981 5.89997 311.524 6.52269 310.858 6.62459Z" fill="white"/>
<defs>
<linearGradient id="paint0_linear" x1="0.000473738" y1="44.2533" x2="252.953" y2="44.2533" gradientUnits="userSpaceOnUse">
<stop stop-color="#FF8C47"/>
<stop offset="1" stop-color="#F75B5F"/>
</linearGradient>
</defs>
</svg>
